{
    "asset" : {
        "generator" : "Khronos glTF Blender I/O v1.6.16",
        "version" : "2.0"
    },
    "scene" : 0,
    "scenes" : [
        {
            "name" : "Scene",
            "nodes" : [
                0,
                1
            ]
        }
    ],
    "nodes" : [
        {
            "mesh" : 0,
            "name" : "low",
            "rotation" : [
                0.7071068286895752,
                0,
                0,
                0.7071067094802856
            ],
            "scale" : [
                1.2457494735717773,
                1.2457494735717773,
                1.2457494735717773
            ]
        },
        {
            "mesh" : 1,
            "name" : "speakerDirection",
            "rotation" : [
                0,
                0,
                -0.7071067690849304,
                0.7071068286895752
            ],
            "scale" : [
                0.5244513750076294,
                0.5244513750076294,
                0.5244513750076294
            ],
            "translation" : [
                -0.5,
                0,
                0
            ]
        }
    ],
    "materials" : [
        {
            "doubleSided" : true,
            "name" : "DefaultMaterial",
            "normalTexture" : {
                "index" : 0
            },
            "pbrMetallicRoughness" : {
                "baseColorTexture" : {
                    "index" : 1
                },
                "metallicFactor" : 0,
                "roughnessFactor" : 0.25
            }
        }
    ],
    "meshes" : [
        {
            "name" : "meshId0_name",
            "primitives" : [
                {
                    "attributes" : {
                        "POSITION" : 0,
                        "NORMAL" : 1,
                        "TEXCOORD_0" : 2
                    },
                    "indices" : 3,
                    "material" : 0
                }
            ]
        },
        {
            "name" : "speakerDirection",
            "primitives" : [
                {
                    "attributes" : {
                        "POSITION" : 4,
                        "NORMAL" : 5,
                        "TEXCOORD_0" : 6
                    },
                    "indices" : 7
                }
            ]
        }
    ],
    "textures" : [
        {
            "sampler" : 0,
            "source" : 0
        },
        {
            "sampler" : 0,
            "source" : 1
        }
    ],
    "images" : [
        {
            "bufferView" : 4,
            "mimeType" : "image/jpeg",
            "name" : "DefaultMaterial_normal"
        },
        {
            "bufferView" : 5,
            "mimeType" : "image/jpeg",
            "name" : "DefaultMaterial_albedo"
        }
    ],
    "accessors" : [
        {
            "bufferView" : 0,
            "componentType" : 5126,
            "count" : 2500,
            "max" : [
                0.6246629953384399,
                0.5916460156440735,
                1
            ],
            "min" : [
                -0.6246629953384399,
                -0.5916460156440735,
                -1
            ],
            "type" : "VEC3"
        },
        {
            "bufferView" : 1,
            "componentType" : 5126,
            "count" : 2500,
            "type" : "VEC3"
        },
        {
            "bufferView" : 2,
            "componentType" : 5126,
            "count" : 2500,
            "type" : "VEC2"
        },
        {
            "bufferView" : 3,
            "componentType" : 5123,
            "count" : 7236,
            "type" : "SCALAR"
        },
        {
            "bufferView" : 6,
            "componentType" : 5126,
            "count" : 4,
            "max" : [
                1,
                0,
                1
            ],
            "min" : [
                -1,
                0,
                -1
            ],
            "type" : "VEC3"
        },
        {
            "bufferView" : 7,
            "componentType" : 5126,
            "count" : 4,
            "type" : "VEC3"
        },
        {
            "bufferView" : 8,
            "componentType" : 5126,
            "count" : 4,
            "type" : "VEC2"
        },
        {
            "bufferView" : 9,
            "componentType" : 5123,
            "count" : 6,
            "type" : "SCALAR"
        }
    ],
    "bufferViews" : [
        {
            "buffer" : 0,
            "byteLength" : 30000,
            "byteOffset" : 0
        },
        {
            "buffer" : 0,
            "byteLength" : 30000,
            "byteOffset" : 30000
        },
        {
            "buffer" : 0,
            "byteLength" : 20000,
            "byteOffset" : 60000
        },
        {
            "buffer" : 0,
            "byteLength" : 14472,
            "byteOffset" : 80000
        },
        {
            "buffer" : 0,
            "byteLength" : 851170,
            "byteOffset" : 94472
        },
        {
            "buffer" : 0,
            "byteLength" : 458510,
            "byteOffset" : 945644
        },
        {
            "buffer" : 0,
            "byteLength" : 48,
            "byteOffset" : 1404156
        },
        {
            "buffer" : 0,
            "byteLength" : 48,
            "byteOffset" : 1404204
        },
        {
            "buffer" : 0,
            "byteLength" : 32,
            "byteOffset" : 1404252
        },
        {
            "buffer" : 0,
            "byteLength" : 12,
            "byteOffset" : 1404284
        }
    ],
    "samplers" : [
        {
            "magFilter" : 9729,
            "minFilter" : 9987
        }
    ],
    "buffers" : [
        {
            "byteLength" : 1404296,
            "uri" : "data:application/octet-stream;base64,"
        }
    ]
}
